<?xml version="1.0" encoding="utf-8"?>
<!-- Svg Vector Icons : http://www.onlinewebfonts.com/icon -->
<!DOCTYPE svg PUBLIC "-//W3C//DTD SVG 1.1//EN" "http://www.w3.org/Graphics/SVG/1.1/DTD/svg11.dtd">
<svg version="1.1" xmlns="http://www.w3.org/2000/svg" xmlns:xlink="http://www.w3.org/1999/xlink" x="0px" y="0px" viewBox="0 0 256 256" enable-background="new 0 0 256 256" xml:space="preserve">
<metadata> Svg Vector Icons : http://www.onlinewebfonts.com/icon </metadata>
<g><g><g><path fill="#007dd0" d="M43.5,66.5c-9.2,0.7-24.7,3.1-31.6,5L10,72v8.1c0,7.6,0,8.2,0.9,7.8c9-3.6,21.1-5.7,36.7-6.4l6.4-0.3l-5,2.5c-8.6,4.3-15.5,10.2-22,18.9c-9.6,12.8-13.9,27-12.6,41.4c1.2,12.1,5.2,21.5,12.5,29.2c9.6,10.1,22.8,15,43.9,16.4c16.6,1.1,31.9-1.5,41.5-6.9l2.6-1.5V173c0-4.5-0.1-8.1-0.2-8.1c0,0-2.6,1.1-5.5,2.5c-11.8,5.6-20.5,7.6-32.5,7.5c-23.9-0.2-38.7-8.1-44.3-23.5c-3.2-8.8-2.4-21.6,2-31.5c2.2-4.8,6.3-10.6,11.2-15.2c11.8-11.4,26-17.8,43.5-19.4c3-0.2,5.9-0.5,6.5-0.5c1.1,0,1.1-0.1,1.1-6.8v-6.8l-4.4-1C79.7,67.1,57.3,65.5,43.5,66.5z"/><path fill="#007dd0" d="M205.1,70.6c4.6,4,10.3,10.2,13.5,14.4c3.6,4.7,8.3,14.2,9.5,19c1.2,4.7,0.8,11.6-0.7,14.8c-2.6,5.4-10.5,10.7-18.5,12.5c-5.8,1.3-10.6,0.7-22.2-2.6l-1.1-0.3v8.1v8.2l3.3,1c1.8,0.6,5.8,1.4,8.7,1.8c4.6,0.7,6.3,0.7,11.1,0.2c22.7-2.3,35.6-14,37.2-33.8c0.6-7.4-1.3-14.6-6.3-24.5c-3.6-7-7.6-12.6-12.8-17.7l-3.9-3.8h-10.3h-10.3L205.1,70.6z"/><path fill="#007dd0" d="M135.4,133.2v11.6h9.3h9.3v-11.6v-11.6h-9.3h-9.3V133.2z"/><path fill="#007dd0" d="M66.1,135.6v6.6h6.6h6.6v-6.6V129h-6.6h-6.6V135.6z"/></g></g></g>
</svg>