<svg width="22" height="22" viewBox="0 0 22 22" fill="none" xmlns="http://www.w3.org/2000/svg">
<path d="M20.9598 9.97072C21.0134 10.8009 21.0134 11.6607 20.9598 12.4909C20.6856 16.7332 17.3536 20.1125 13.1706 20.3905C11.7435 20.4854 10.2536 20.4852 8.8294 20.3905C8.33896 20.3579 7.8044 20.2409 7.34401 20.0513C6.83177 19.8403 6.5756 19.7348 6.44544 19.7508C6.31527 19.7668 6.1264 19.9061 5.74868 20.1846C5.08268 20.6757 4.24367 21.0285 2.99943 20.9982C2.37026 20.9829 2.05568 20.9752 1.91484 20.7351C1.77401 20.495 1.94941 20.1626 2.30021 19.4978C2.78674 18.5758 3.09501 17.5203 2.62791 16.6746C1.82343 15.4666 1.1401 14.036 1.04024 12.4909C0.986587 11.6607 0.986587 10.8009 1.04024 9.97072C1.31441 5.72838 4.64639 2.34913 8.8294 2.07107C10.0318 1.99114 10.2812 1.97856 11.5 2.03368" stroke="#007DD0" stroke-width="1.5" stroke-linecap="round" stroke-linejoin="round"/>
<path d="M21 4.5C21 6.433 19.433 8 17.5 8C15.567 8 14 6.433 14 4.5C14 2.567 15.567 1 17.5 1C19.433 1 21 2.567 21 4.5Z" fill="#FFAC47" stroke="#FFAC47" stroke-width="1.5"/>
</svg>
