<svg width="338" height="108" viewBox="0 0 338 108" fill="none" xmlns="http://www.w3.org/2000/svg">
<path d="M174.518 26.5184C173.176 23.1912 171.279 20.3566 168.827 18.017C166.372 15.6774 163.375 13.8568 159.838 12.5602C156.298 11.2637 152.329 10.6128 147.936 10.6128H120.797V64.5838H147.936C152.329 64.5838 156.298 63.95 159.838 62.6825C163.375 61.4124 166.372 59.6089 168.827 57.2667C171.279 54.9271 173.178 52.0951 174.518 48.7653C175.859 45.4408 176.533 41.7189 176.533 37.5983C176.533 33.4776 175.859 29.8455 174.518 26.5184ZM163.689 45.2956C162.831 47.4424 161.634 49.2314 160.094 50.6679C158.552 52.1057 156.724 53.1632 154.613 53.8392C152.502 54.5165 150.19 54.8558 147.679 54.8558H132.267V20.3394H147.679C150.19 20.3394 152.502 20.6932 154.613 21.3969C156.724 22.1033 158.552 23.1595 160.094 24.5683C161.634 25.9797 162.832 27.7713 163.689 29.9406C164.547 32.1125 164.972 34.6659 164.972 37.5956C164.972 40.5254 164.545 43.1527 163.689 45.2929V45.2956Z" fill="#3A3A3A"/>
<path d="M212.918 10.6128H198.362L177.9 64.5838H189.886L194.852 51.3029H216.515L221.394 64.5838H233.468L212.918 10.6128ZM197.849 42.8451L205.639 21.8657L213.43 42.8451H197.848H197.849Z" fill="#3A3A3A"/>
<path d="M267.884 10.6128L253.585 34.9762L239.118 10.6128H226.102L247.421 46.06V64.5838H258.807V46.229L280.556 10.6128H267.884Z" fill="#3A3A3A"/>
<path d="M327.816 20.342V10.6128H286.719V64.5838H298.192V41.5763H324.048V32.5244H298.192V20.3407H327.815L327.816 20.342Z" fill="#3A3A3A"/>
<path d="M139.814 89.2916C139.601 88.6724 139.276 88.139 138.842 87.6874C138.408 87.2346 137.86 86.8715 137.204 86.5955C136.545 86.3222 135.781 86.1612 134.912 86.1176C135.758 86.074 136.454 85.8865 137.004 85.5552C137.549 85.2238 137.975 84.8435 138.274 84.4144C138.575 83.9853 138.775 83.5325 138.876 83.0598C138.977 82.5845 139.027 82.1726 139.027 81.8187C139.027 80.7176 138.805 79.7934 138.358 79.0448C137.912 78.2962 137.327 77.6994 136.6 77.2584C135.877 76.8175 135.061 76.5032 134.16 76.3157C133.257 76.1283 132.335 76.0332 131.399 76.0332H120.795V97.1249H132.268C133.25 97.1249 134.216 97.0351 135.164 96.8595C136.111 96.6839 136.954 96.3816 137.689 95.9525C138.427 95.5207 139.016 94.9332 139.462 94.1833C139.909 93.4347 140.133 92.4748 140.133 91.305C140.133 90.5789 140.025 89.9082 139.815 89.2916H139.814ZM125.275 79.837H131.165C131.656 79.837 132.113 79.8687 132.536 79.9347C132.959 80.0007 133.33 80.1221 133.642 80.3004C133.953 80.476 134.199 80.7242 134.376 81.0437C134.554 81.3632 134.645 81.7752 134.645 82.2821C134.645 82.7891 134.566 83.1747 134.411 83.5061C134.254 83.8348 134.036 84.0989 133.758 84.2982C133.479 84.4976 133.139 84.6349 132.737 84.7102C132.335 84.7881 131.9 84.8277 131.43 84.8277H125.275V79.8357V79.837ZM135.364 92.1672C135.127 92.4986 134.809 92.7521 134.41 92.9277C134.008 93.1033 133.561 93.2129 133.071 93.2564C132.578 93.3026 132.077 93.3224 131.564 93.3224H125.274V88.1337H131.429C131.942 88.1337 132.455 88.1654 132.968 88.2314C133.481 88.2974 133.945 88.4242 134.359 88.6116C134.771 88.7991 135.099 89.0645 135.344 89.4065C135.588 89.7458 135.711 90.2158 135.711 90.8099C135.711 91.4041 135.595 91.8358 135.361 92.1672H135.364Z" fill="#3A3A3A"/>
<path d="M173.753 82.1318C173.129 80.8009 172.286 79.6536 171.227 78.6951C170.169 77.7352 168.93 76.9985 167.513 76.4796C166.096 75.9634 164.585 75.7046 162.981 75.7046C161.378 75.7046 159.859 75.9673 158.43 76.4968C157.002 77.0275 155.754 77.7643 154.683 78.7122C153.613 79.6602 152.764 80.8009 152.14 82.1318C151.516 83.4653 151.205 84.9493 151.205 86.5798C151.205 88.2104 151.516 89.6918 152.14 91.0253C152.764 92.3588 153.613 93.4995 154.683 94.4475C155.754 95.3954 157.002 96.1322 158.43 96.6603C159.859 97.191 161.375 97.4551 162.981 97.4551C164.588 97.4551 166.095 97.1963 167.513 96.6774C168.929 96.1586 170.174 95.4218 171.245 94.462C172.315 93.5061 173.157 92.3588 173.77 91.0253C174.382 89.6918 174.692 88.2104 174.692 86.5798C174.692 84.9493 174.377 83.4653 173.753 82.1318ZM169.621 89.3894C169.254 90.2476 168.753 90.991 168.117 91.6194C167.48 92.2479 166.723 92.7403 165.842 93.0915C164.959 93.4454 164.005 93.621 162.981 93.621C161.958 93.621 160.996 93.4454 160.103 93.0915C159.21 92.7403 158.441 92.2479 157.794 91.6194C157.147 90.991 156.64 90.2476 156.272 89.3894C155.905 88.5312 155.722 87.5952 155.722 86.5812C155.722 85.5672 155.905 84.6311 156.272 83.7689C156.64 82.9107 157.147 82.1608 157.794 81.5218C158.441 80.8828 159.21 80.3864 160.103 80.0352C160.996 79.684 161.955 79.5044 162.981 79.5044C164.008 79.5044 164.958 79.6826 165.842 80.0352C166.723 80.3864 167.487 80.8828 168.134 81.5218C168.778 82.1608 169.283 82.916 169.639 83.7861C169.994 84.6562 170.174 85.587 170.174 86.5812C170.174 87.5753 169.987 88.5312 169.62 89.3894H169.621Z" fill="#3A3A3A"/>
<path d="M208.347 82.1318C207.721 80.8009 206.877 79.6536 205.819 78.6951C204.761 77.7352 203.522 76.9985 202.107 76.4796C200.691 75.9634 199.179 75.7046 197.573 75.7046C195.967 75.7046 194.45 75.9673 193.022 76.4968C191.596 77.0275 190.345 77.7643 189.275 78.7122C188.205 79.6602 187.356 80.8009 186.732 82.1318C186.108 83.4653 185.797 84.9493 185.797 86.5798C185.797 88.2104 186.108 89.6918 186.732 91.0253C187.356 92.3588 188.205 93.4995 189.275 94.4475C190.345 95.3954 191.596 96.1322 193.022 96.6603C194.45 97.191 195.967 97.4551 197.573 97.4551C199.179 97.4551 200.691 97.1963 202.107 96.6774C203.521 96.1586 204.766 95.4218 205.836 94.462C206.907 93.5061 207.749 92.3588 208.362 91.0253C208.977 89.6918 209.284 88.2104 209.284 86.5798C209.284 84.9493 208.973 83.4653 208.349 82.1318H208.347ZM204.213 89.3894C203.845 90.2476 203.344 90.991 202.708 91.6194C202.072 92.2479 201.315 92.7403 200.434 93.0915C199.553 93.4454 198.601 93.621 197.573 93.621C196.546 93.621 195.588 93.4454 194.695 93.0915C193.802 92.7403 193.033 92.2479 192.386 91.6194C191.739 90.991 191.231 90.2476 190.864 89.3894C190.496 88.5312 190.313 87.5952 190.313 86.5812C190.313 85.5672 190.496 84.6311 190.864 83.7689C191.231 82.9107 191.739 82.1608 192.386 81.5218C193.033 80.8828 193.802 80.3864 194.695 80.0352C195.588 79.684 196.547 79.5044 197.573 79.5044C198.599 79.5044 199.553 79.6826 200.434 80.0352C201.315 80.3864 202.079 80.8828 202.726 81.5218C203.372 82.1608 203.875 82.916 204.23 83.7861C204.586 84.6562 204.767 85.587 204.767 86.5812C204.767 87.5753 204.584 88.5312 204.213 89.3894Z" fill="#3A3A3A"/>
<path d="M232.369 85.4878L242.07 76.0332H236.385L226.281 85.8509V76.0675L221.797 76.0332V97.1249H226.281V91.4067L229.192 88.5628L236.451 97.1249H242.137L232.369 85.4891V85.4878Z" fill="#3A3A3A"/>
<path d="M253.947 76.0332V97.1249H258.429V76.0332H253.947Z" fill="#3A3A3A"/>
<path d="M287.535 76.0332V89.9821L276.695 76.0332H272.344V97.1249H276.828V83.2077L287.669 97.1249H292.016V76.0332H287.534H287.535Z" fill="#3A3A3A"/>
<path d="M313.329 85.3559V88.4955H323.87L323.768 89.8528C323.546 90.4034 323.205 90.9038 322.747 91.3566C322.289 91.8095 321.744 92.195 321.109 92.5119C320.473 92.8314 319.765 93.0796 318.983 93.2552C318.201 93.4334 317.367 93.5206 316.475 93.5206C315.315 93.5206 314.277 93.345 313.364 92.9938C312.449 92.6399 311.667 92.1435 311.02 91.5045C310.374 90.8681 309.871 90.1155 309.516 89.2573C309.16 88.3992 308.97 87.4829 308.948 86.5151C308.948 85.5011 309.113 84.5769 309.449 83.7385C309.784 82.9001 310.268 82.1806 310.904 81.5719C311.54 80.9672 312.31 80.4946 313.213 80.1513C314.116 79.808 315.137 79.639 316.274 79.639C317.123 79.639 317.93 79.7116 318.7 79.8555C319.469 79.9968 320.167 80.2239 320.789 80.5328C321.414 80.8418 321.949 81.2326 322.396 81.7053C322.842 82.1806 323.185 82.7483 323.431 83.4084L327.58 82.8473C327.379 81.6577 326.974 80.6226 326.359 79.7393C325.747 78.86 324.96 78.1141 324 77.5094C323.041 76.9047 321.939 76.4518 320.688 76.1548C319.44 75.855 318.09 75.7085 316.64 75.7085C314.813 75.7085 313.15 75.9884 311.655 76.5495C310.162 77.1106 308.89 77.883 307.841 78.8627C306.795 79.845 305.981 80.9923 305.401 82.302C304.821 83.6131 304.518 85.0192 304.498 86.5164C304.518 88.1668 304.821 89.668 305.401 91.0107C305.981 92.3561 306.8 93.5087 307.859 94.4646C308.917 95.4244 310.194 96.1612 311.69 96.68C313.182 97.1989 314.845 97.4577 316.675 97.4577C318.506 97.4577 319.941 97.1382 321.125 96.4978C322.306 95.8588 323.221 95.0429 323.868 94.0513V97.125H327.815V85.3559H313.327H313.329Z" fill="#3A3A3A"/>
<path d="M33.7124 72.5939L48.7986 97.9607C48.9563 98.2261 48.7625 98.5615 48.4498 98.5615H13.3027C11.5455 98.5615 10.1211 97.154 10.1211 95.4179V58.9619L32.5018 71.4189C33.0029 71.6975 33.4198 72.1028 33.7111 72.5926L33.7124 72.5939Z" fill="#FE055B"/>
<path d="M32.5018 36.6516L10.1211 49.1086V12.65C10.1211 10.9138 11.5455 9.50635 13.3027 9.50635H48.4498C48.7625 9.50635 48.9563 9.8417 48.7986 10.1071L33.7124 35.4778C33.4211 35.9677 33.0042 36.373 32.5031 36.6516H32.5018Z" fill="#531C92"/>
<path d="M98.7669 35.75C100.978 41.2424 102.087 47.3355 102.087 54.0374L70.8515 36.653C70.3504 36.3745 69.9335 35.9691 69.6422 35.4793L54.556 10.1085C54.3984 9.84317 54.5921 9.50781 54.9048 9.50781C62.1579 9.50781 68.7001 10.5812 74.5409 12.7188C80.3776 14.8603 85.3256 17.8626 89.3758 21.7245C93.4219 25.5864 96.5541 30.2615 98.7682 35.75H98.7669Z" fill="#FE055B"/>
<path d="M102.089 54.036C102.089 60.8302 100.98 66.9696 98.7682 72.462C96.5527 77.9505 93.4206 82.6296 89.3758 86.4875C85.3257 90.3533 80.3789 93.3279 74.5408 95.4232C68.7001 97.5146 62.1566 98.5602 54.9048 98.5602C54.5921 98.5602 54.3984 98.2249 54.556 97.9595L69.6422 72.5927C69.9335 72.1029 70.3504 71.6976 70.8515 71.419L102.087 54.0347L102.089 54.036Z" fill="#531C92"/>
<path d="M52.6489 31.2317L57.7306 39.774H45.627L50.7033 31.2317C51.1376 30.4976 52.2133 30.4976 52.6476 31.2317H52.6489Z" fill="#0EB1FD"/>
<path d="M46.3475 68.2948C46.3449 68.2829 46.3422 68.2684 46.3382 68.2579C47.029 68.0387 47.7199 67.8195 48.4107 67.6043C50.7986 66.8517 53.1837 66.1005 55.5743 65.3545C55.7467 65.3004 55.8014 65.2251 55.8014 65.0429C55.7988 58.0427 55.7988 51.0412 55.8041 44.041C55.8041 43.8417 55.7453 43.7558 55.5569 43.6832C52.2217 42.4276 48.8917 41.1628 45.5592 39.9006C45.5565 39.9006 45.5538 39.8979 45.5498 39.8979L42.6047 44.853C42.5032 45.0233 42.3575 45.1646 42.1851 45.2597L28.1573 53.0639C27.3903 53.4904 27.3903 54.5823 28.1573 55.0087L42.1851 62.813C42.3575 62.9107 42.5032 63.0519 42.6047 63.2196L50.7023 76.8371C51.1366 77.5712 52.2123 77.5712 52.6466 76.8371L57.7283 68.2948H46.3449H46.3475ZM52.4234 52.9279C53.0568 52.9226 53.5606 53.4151 53.5606 54.037C53.5632 54.6509 53.0675 55.146 52.4528 55.1513C51.8194 55.1605 51.3157 54.6641 51.313 54.0423C51.313 53.4257 51.8034 52.9332 52.4234 52.9279Z" fill="#0EB1FD"/>
<path d="M75.194 55.0088L61.1688 62.8131C60.9965 62.9108 60.8508 63.052 60.7519 63.2197L58.002 67.8407V40.2334L60.7519 44.8544C60.8508 45.0247 60.9965 45.166 61.1715 45.2611L75.1927 53.0653C75.9597 53.4918 75.9597 54.5837 75.1927 55.0101L75.194 55.0088Z" fill="#0EB1FD"/>
<path d="M45.3509 39.7739H45.6275L45.5514 39.898C45.4819 39.869 45.4111 39.8347 45.3496 39.7739H45.3509Z" fill="white"/>
<path d="M58.0017 39.7739V40.2321L57.7305 39.7739H58.0017Z" fill="white"/>
<path d="M57.7305 68.2949L58.0017 67.8394V68.2949H57.7305Z" fill="white"/>
</svg>
