<svg width="86" height="26" viewBox="0 0 86 26" fill="none" xmlns="http://www.w3.org/2000/svg">
<g id="Group 1707478001">
<g id="Group">
<g id="Group_2">
<path id="Vector" d="M44.4718 5.56023C44.1135 4.65963 43.6068 3.89234 42.952 3.25906C42.2964 2.62579 41.496 2.13296 40.5514 1.78202C39.606 1.43107 38.5462 1.25488 37.3728 1.25488H30.125V15.8638H37.3728C38.5462 15.8638 39.606 15.6923 40.5514 15.3492C41.496 15.0054 42.2964 14.5172 42.952 13.8832C43.6068 13.2499 44.1139 12.4834 44.4718 11.5821C44.8301 10.6822 45.01 9.67473 45.01 8.55935C45.01 7.44397 44.8301 6.46082 44.4718 5.56023ZM41.5798 10.6429C41.3507 11.224 41.031 11.7082 40.6199 12.097C40.2081 12.4862 39.7199 12.7725 39.156 12.9555C38.5922 13.1388 37.9748 13.2306 37.3043 13.2306H33.1883V3.88769H37.3043C37.9748 3.88769 38.5922 3.98347 39.156 4.17395C39.7199 4.36515 40.2081 4.65105 40.6199 5.03238C41.031 5.41441 41.3511 5.89938 41.5798 6.48655C41.8089 7.07444 41.9224 7.76561 41.9224 8.55863C41.9224 9.35165 41.8086 10.0628 41.5798 10.6421V10.6429Z" fill="#00006A"/>
<path id="Vector_2" d="M54.7269 1.25488H50.8396L45.375 15.8638H48.576L49.9021 12.2689H55.6875L56.9904 15.8638H60.215L54.7269 1.25488ZM50.7026 9.97957L52.7831 4.30082L54.8635 9.97957H50.7022H50.7026Z" fill="#00006A"/>
<path id="Vector_3" d="M69.4067 1.25488L65.5879 7.84959L61.7242 1.25488H58.248L63.9417 10.8498V15.8638H66.9825V10.8955L72.7908 1.25488H69.4067Z" fill="#00006A"/>
<path id="Vector_4" d="M85.4131 3.88841V1.25488H74.4375V15.8638H77.5015V9.63613H84.4067V7.18594H77.5015V3.88805H85.4127L85.4131 3.88841Z" fill="#00006A"/>
</g>
<g id="Group_3">
<path id="Vector_5" d="M35.2042 22.5517C35.1474 22.3841 35.0607 22.2397 34.9447 22.1175C34.8288 21.9949 34.6825 21.8966 34.5072 21.8219C34.3313 21.7479 34.1272 21.7043 33.8952 21.6925C34.1211 21.6808 34.307 21.63 34.4537 21.5403C34.5993 21.4506 34.7131 21.3477 34.7931 21.2315C34.8734 21.1154 34.9269 20.9928 34.9537 20.8649C34.9808 20.7362 34.994 20.6247 34.994 20.5289C34.994 20.2309 34.9348 19.9807 34.8156 19.7781C34.6964 19.5754 34.5401 19.4139 34.3459 19.2945C34.1529 19.1752 33.9348 19.0901 33.6943 19.0394C33.4531 18.9886 33.2068 18.9629 32.957 18.9629H30.125V24.672H33.189C33.4513 24.672 33.7093 24.6477 33.9623 24.6002C34.2153 24.5527 34.4405 24.4708 34.6368 24.3547C34.8338 24.2378 34.9911 24.0788 35.1103 23.8758C35.2295 23.6731 35.2895 23.4133 35.2895 23.0967C35.2895 22.9001 35.2606 22.7186 35.2045 22.5517H35.2042ZM31.3216 19.9925H32.8946C33.0256 19.9925 33.1476 20.0011 33.2607 20.0189C33.3735 20.0368 33.4727 20.0697 33.5558 20.1179C33.639 20.1655 33.7047 20.2327 33.7521 20.3191C33.7996 20.4056 33.8239 20.5171 33.8239 20.6544C33.8239 20.7916 33.8028 20.896 33.7614 20.9857C33.7193 21.0746 33.6611 21.1461 33.5869 21.2001C33.5123 21.254 33.4217 21.2912 33.3143 21.3116C33.2068 21.3327 33.0909 21.3434 32.9652 21.3434H31.3216V19.9921V19.9925ZM34.0158 23.3301C33.9527 23.4198 33.8677 23.4884 33.761 23.5359C33.6536 23.5834 33.5344 23.6131 33.4035 23.6249C33.2718 23.6374 33.138 23.6428 33.0009 23.6428H31.3212V22.2383H32.9649C33.1019 22.2383 33.239 22.2468 33.376 22.2647C33.513 22.2826 33.6369 22.3169 33.7475 22.3676C33.8574 22.4184 33.9452 22.4902 34.0105 22.5828C34.0758 22.6746 34.1086 22.8019 34.1086 22.9627C34.1086 23.1235 34.0776 23.2404 34.0151 23.3301H34.0158Z" fill="#00006A"/>
<path id="Vector_6" d="M44.2677 20.6137C44.1011 20.2535 43.8759 19.9429 43.5933 19.6835C43.3106 19.4237 42.9798 19.2243 42.6012 19.0838C42.2229 18.9441 41.8193 18.874 41.3911 18.874C40.9629 18.874 40.5571 18.9451 40.1756 19.0885C39.7941 19.2321 39.4608 19.4315 39.175 19.6881C38.8892 19.9447 38.6625 20.2535 38.4959 20.6137C38.3292 20.9747 38.2461 21.3764 38.2461 21.8178C38.2461 22.2591 38.3292 22.6601 38.4959 23.021C38.6625 23.382 38.8892 23.6908 39.175 23.9474C39.4608 24.204 39.7941 24.4034 40.1756 24.5463C40.5571 24.69 40.9621 24.7615 41.3911 24.7615C41.82 24.7615 42.2226 24.6914 42.6012 24.551C42.9795 24.4105 43.3121 24.2111 43.5979 23.9513C43.8838 23.6926 44.1086 23.382 44.2724 23.021C44.4358 22.6601 44.5186 22.2591 44.5186 21.8178C44.5186 21.3764 44.4344 20.9747 44.2677 20.6137ZM43.1643 22.5783C43.0662 22.8106 42.9324 23.0118 42.7625 23.1819C42.5926 23.352 42.3903 23.4853 42.1551 23.5803C41.9192 23.6761 41.6644 23.7237 41.3911 23.7237C41.1177 23.7237 40.8608 23.6761 40.6224 23.5803C40.384 23.4853 40.1785 23.352 40.0058 23.1819C39.833 23.0118 39.6974 22.8106 39.5993 22.5783C39.5012 22.346 39.4523 22.0926 39.4523 21.8181C39.4523 21.5436 39.5012 21.2903 39.5993 21.0569C39.6974 20.8246 39.833 20.6216 40.0058 20.4486C40.1785 20.2757 40.384 20.1413 40.6224 20.0462C40.8608 19.9512 41.117 19.9026 41.3911 19.9026C41.6652 19.9026 41.9189 19.9508 42.1551 20.0462C42.3903 20.1413 42.5944 20.2757 42.7671 20.4486C42.9392 20.6216 43.074 20.826 43.169 21.0615C43.2639 21.297 43.3121 21.549 43.3121 21.8181C43.3121 22.0872 43.2621 22.346 43.164 22.5783H43.1643Z" fill="#00006A"/>
<path id="Vector_7" d="M53.5067 20.6137C53.3394 20.2535 53.1142 19.9429 52.8316 19.6835C52.5489 19.4237 52.2181 19.2243 51.8402 19.0838C51.4619 18.9441 51.0583 18.874 50.6294 18.874C50.2004 18.874 49.7954 18.9451 49.4139 19.0885C49.0331 19.2321 48.6991 19.4315 48.4133 19.6881C48.1274 19.9447 47.9008 20.2535 47.7342 20.6137C47.5675 20.9747 47.4844 21.3764 47.4844 21.8178C47.4844 22.2591 47.5675 22.6601 47.7342 23.021C47.9008 23.382 48.1274 23.6908 48.4133 23.9474C48.6991 24.204 49.0331 24.4034 49.4139 24.5463C49.7954 24.69 50.2004 24.7615 50.6294 24.7615C51.0583 24.7615 51.4619 24.6914 51.8402 24.551C52.2178 24.4105 52.5504 24.2111 52.8362 23.9513C53.122 23.6926 53.3469 23.382 53.5107 23.021C53.6748 22.6601 53.7569 22.2591 53.7569 21.8178C53.7569 21.3764 53.6737 20.9747 53.5071 20.6137H53.5067ZM52.4026 22.5783C52.3045 22.8106 52.1707 23.0118 52.0008 23.1819C51.8309 23.352 51.6286 23.4853 51.3934 23.5803C51.1582 23.6761 50.9038 23.7237 50.6294 23.7237C50.355 23.7237 50.0991 23.6761 49.8607 23.5803C49.6223 23.4853 49.4168 23.352 49.2441 23.1819C49.0713 23.0118 48.9357 22.8106 48.8376 22.5783C48.7395 22.346 48.6906 22.0926 48.6906 21.8181C48.6906 21.5436 48.7395 21.2903 48.8376 21.0569C48.9357 20.8246 49.0713 20.6216 49.2441 20.4486C49.4168 20.2757 49.6223 20.1413 49.8607 20.0462C50.0991 19.9512 50.3553 19.9026 50.6294 19.9026C50.9034 19.9026 51.1582 19.9508 51.3934 20.0462C51.6286 20.1413 51.8327 20.2757 52.0054 20.4486C52.1782 20.6216 52.3123 20.826 52.4073 21.0615C52.5022 21.297 52.5507 21.549 52.5507 21.8181C52.5507 22.0872 52.5018 22.346 52.4026 22.5783Z" fill="#00006A"/>
<path id="Vector_8" d="M59.9231 21.5221L62.5139 18.9629H60.9954L58.2972 21.6204V18.9722L57.0996 18.9629V24.672H58.2972V23.1242L59.0745 22.3544L61.0133 24.672H62.5317L59.9231 21.5224V21.5221Z" fill="#00006A"/>
<path id="Vector_9" d="M65.6855 18.9629V24.672H66.8825V18.9629H65.6855Z" fill="#00006A"/>
<path id="Vector_10" d="M74.6548 18.9629V22.7386L71.7596 18.9629H70.5977V24.672H71.7953V20.9049L74.6905 24.672H75.8513V18.9629H74.6544H74.6548Z" fill="#00006A"/>
<path id="Vector_11" d="M81.544 21.4864V22.3362H84.3589L84.3318 22.7036C84.2726 22.8526 84.1816 22.9881 84.0592 23.1107C83.9368 23.2332 83.7912 23.3376 83.6217 23.4234C83.4518 23.5098 83.2627 23.577 83.0539 23.6246C82.8451 23.6728 82.6225 23.6964 82.3841 23.6964C82.0743 23.6964 81.797 23.6489 81.5533 23.5538C81.3089 23.458 81.1001 23.3236 80.9274 23.1507C80.7547 22.9784 80.6205 22.7747 80.5256 22.5424C80.4306 22.3101 80.38 22.0621 80.3739 21.8001C80.3739 21.5257 80.4181 21.2755 80.5077 21.0486C80.5973 20.8216 80.7265 20.6269 80.8963 20.4621C81.0662 20.2984 81.2717 20.1705 81.513 20.0776C81.7542 19.9847 82.0269 19.9389 82.3305 19.9389C82.5572 19.9389 82.7727 19.9586 82.9783 19.9975C83.1838 20.0358 83.3701 20.0972 83.5364 20.1809C83.703 20.2645 83.8461 20.3703 83.9653 20.4982C84.0845 20.6269 84.1762 20.7805 84.2419 20.9592L85.3499 20.8073C85.2961 20.4853 85.1879 20.2052 85.0238 19.9661C84.8603 19.7281 84.6501 19.5261 84.3939 19.3625C84.1377 19.1988 83.8433 19.0762 83.5093 18.9958C83.1759 18.9147 82.8155 18.875 82.4283 18.875C81.9402 18.875 81.4962 18.9508 81.0969 19.1027C80.6983 19.2545 80.3585 19.4636 80.0784 19.7288C79.799 19.9947 79.5817 20.3052 79.4268 20.6597C79.2719 21.0146 79.1909 21.3952 79.1855 21.8005C79.1909 22.2472 79.2719 22.6536 79.4268 23.017C79.5817 23.3812 79.8004 23.6932 80.083 23.9519C80.3657 24.2117 80.7068 24.4112 81.1062 24.5516C81.5048 24.6921 81.9487 24.7621 82.4376 24.7621C82.9265 24.7621 83.3098 24.6756 83.626 24.5023C83.9414 24.3293 84.1859 24.1085 84.3586 23.8401V24.672H85.4127V21.4864H81.5433H81.544Z" fill="#00006A"/>
</g>
</g>
<path id="Vector_12" d="M6.87067 18.0327L10.8996 24.899C10.9417 24.9709 10.89 25.0616 10.8065 25.0616H1.42C0.950725 25.0616 0.570312 24.6807 0.570312 24.2107V14.3428L6.54735 17.7146C6.68118 17.7901 6.79252 17.8998 6.87031 18.0324L6.87067 18.0327Z" fill="#FE055B"/>
<path id="Vector_13" d="M6.54735 8.30376L0.570312 11.6756V1.80697C0.570312 1.33702 0.950725 0.956055 1.42 0.956055H10.8065C10.89 0.956055 10.9417 1.04683 10.8996 1.11866L6.87067 7.98605C6.79287 8.11864 6.68153 8.22835 6.54771 8.30376H6.54735Z" fill="#531C92"/>
<path id="Vector_14" d="M24.2439 8.05931C24.8345 9.54601 25.1307 11.1953 25.1307 13.0094L16.7887 8.30376C16.6549 8.22835 16.5436 8.11864 16.4658 7.98605L12.4368 1.11866C12.3947 1.04683 12.4465 0.956055 12.53 0.956055C14.467 0.956055 16.2142 1.2466 17.774 1.8252C19.3328 2.40487 20.6542 3.21755 21.7359 4.26288C22.8165 5.30821 23.6529 6.57369 24.2443 8.05931H24.2439Z" fill="#FE055B"/>
<path id="Vector_15" d="M25.131 13.0091C25.131 14.8482 24.8349 16.51 24.2443 17.9967C23.6526 19.4823 22.8161 20.7489 21.7359 21.7932C20.6542 22.8396 19.3332 23.6447 17.774 24.2119C16.2142 24.778 14.4667 25.061 12.53 25.061C12.4465 25.061 12.3947 24.9703 12.4368 24.8984L16.4658 18.0321C16.5436 17.8995 16.6549 17.7898 16.7887 17.7144L25.1307 13.0088L25.131 13.0091Z" fill="#531C92"/>
<path id="Vector_16" d="M11.928 6.83653L13.2852 9.14877H10.0527L11.4084 6.83653C11.5244 6.63782 11.8117 6.63782 11.9277 6.83653H11.928Z" fill="#0EB1FD"/>
<path id="Vector_17" d="M10.2459 16.8691C10.2452 16.8659 10.2445 16.862 10.2434 16.8591C10.4279 16.7998 10.6124 16.7405 10.7969 16.6822C11.4346 16.4785 12.0716 16.2752 12.71 16.0732C12.7561 16.0586 12.7707 16.0382 12.7707 15.9889C12.77 14.0941 12.77 12.1989 12.7714 10.3041C12.7714 10.2501 12.7557 10.2269 12.7054 10.2072C11.8147 9.86735 10.9254 9.52499 10.0354 9.18333C10.0347 9.18333 10.034 9.18262 10.0329 9.18262L9.24637 10.5239C9.21925 10.57 9.18035 10.6082 9.13432 10.6339L5.388 12.7464C5.18317 12.8618 5.18317 13.1574 5.388 13.2728L9.13432 15.3853C9.18035 15.4117 9.21925 15.45 9.24637 15.4954L11.4089 19.1814C11.5249 19.3801 11.8122 19.3801 11.9282 19.1814L13.2853 16.8691H10.2452H10.2459ZM11.8686 12.7096C12.0377 12.7082 12.1723 12.8415 12.1723 13.0098C12.173 13.176 12.0406 13.31 11.8764 13.3114C11.7073 13.3139 11.5727 13.1795 11.572 13.0112C11.572 12.8443 11.703 12.711 11.8686 12.7096Z" fill="#0EB1FD"/>
<path id="Vector_18" d="M17.9488 13.2729L14.2032 15.3853C14.1571 15.4118 14.1182 15.45 14.0918 15.4954L13.3574 16.7462V9.27344L14.0918 10.5243C14.1182 10.5704 14.1571 10.6086 14.2039 10.6343L17.9484 12.7468C18.1533 12.8622 18.1533 13.1578 17.9484 13.2732L17.9488 13.2729Z" fill="#0EB1FD"/>
<g id="Group_4">
<path id="Vector_19" d="M9.97887 9.14941H10.0527L10.0324 9.18301C10.0138 9.17515 9.99493 9.16585 9.97852 9.14941H9.97887Z" fill="white"/>
<path id="Vector_20" d="M13.3576 9.14941V9.27343L13.2852 9.14941H13.3576Z" fill="white"/>
<path id="Vector_21" d="M13.2852 16.8694L13.3576 16.7461V16.8694H13.2852Z" fill="white"/>
</g>
</g>
</svg>
